# xmcd CD database file
#
# Track frame offsets:
#	150
#	9193
#	33885
#	56370
#	80458
#	101433
#	116155
#	146913
#	174700
#	188528
#	201940
#	220213
#	239220
#	257293
#	285210
#
# Disc length: 4097 seconds
#
# Revision: 0
# Processed by: cddbd v1.5.2PL0 Copyright (c) Steve Scherf et al.
# Submitted via: CDex 1.51
#
DISCID=ca0fff0f
DTITLE=Various Artist - Aina-Days Of Rising Doom (The Metal Opera)[CD1]
DYEAR=2003
DGENRE=Hard Rock
TTITLE0=Aina Overture
TTITLE1=Reveelations
TTITLE2=Silver Maiden
TTITLE3=Flight Of Torek
TTITLE4=Naschtok Is Born
TTITLE5=The Beas Within
TTITLE6=The Siege Of Aina
TTITLE7=Talon's Last Hope
TTITLE8=Rape Of Oria
TTITLE9=Son Of Sorvahr
TTITLE10=Serendipity
TTITLE11=Lalae Amer
TTITLE12=Rebellion
TTITLE13=Oriana's Wrath
TTITLE14=Restoration
EXTD=YEAR: 2003
EXTT0=
EXTT1=
EXTT2=
EXTT3=
EXTT4=
EXTT5=
EXTT6=
EXTT7=
EXTT8=
EXTT9=
EXTT10=
EXTT11=
EXTT12=
EXTT13=
EXTT14=
PLAYORDER=
